M48
; DRILL file {KiCad 9.0.7} date 2026-03-04T00:41:14-0300
; FORMAT={-:-/ absolute / metric / decimal}
; #@! TF.CreationDate,2026-03-04T00:41:14-03:00
; #@! TF.GenerationSoftware,Kicad,Pcbnew,9.0.7
; #@! TF.FileFunction,Plated,1,2,PTH
FMAT,2
METRIC
; #@! TA.AperFunction,Plated,PTH,ComponentDrill
T1C0.800
; #@! TA.AperFunction,Plated,PTH,ComponentDrill
T2C0.900
; #@! TA.AperFunction,Plated,PTH,ComponentDrill
T3C0.914
; #@! TA.AperFunction,Plated,PTH,ComponentDrill
T4C1.000
; #@! TA.AperFunction,Plated,PTH,ComponentDrill
T5C1.100
; #@! TA.AperFunction,Plated,PTH,ComponentDrill
T6C1.200
%
G90
G05
T1
X89.255Y-56.27
X89.255Y-58.81
X89.255Y-61.35
X89.255Y-63.89
X89.255Y-66.43
X89.255Y-68.97
X89.255Y-71.51
X89.255Y-74.05
X89.255Y-76.59
X89.255Y-79.13
X89.255Y-81.67
X89.255Y-84.21
X104.495Y-56.27
X104.495Y-58.81
X104.495Y-61.35
X104.495Y-63.89
X104.495Y-66.43
X104.495Y-68.97
X104.495Y-71.51
X104.495Y-74.05
X104.495Y-76.59
X104.495Y-79.13
X104.495Y-81.67
X104.495Y-84.21
T2
X68.29Y-55.35
X70.83Y-55.35
X76.86Y-55.372
X79.4Y-55.372
T3
X54.717Y-162.299
X57.058Y-91.599
X57.217Y-162.299
X79.417Y-162.299
X81.758Y-91.599
X81.917Y-162.299
X116.567Y-162.299
X118.908Y-91.599
X119.067Y-162.299
X141.317Y-162.299
X143.659Y-91.599
X143.817Y-162.299
T4
X63.5Y-79.525
X63.511Y-191.093
X66.0Y-79.525
X66.011Y-191.093
X68.5Y-79.525
X68.511Y-191.093
X125.2Y-79.225
X125.211Y-191.093
X127.7Y-79.225
X127.711Y-191.093
X130.2Y-79.225
X130.211Y-191.093
T6
X79.7Y-174.45
X79.7Y-179.45
X79.75Y-191.2
X79.75Y-196.2
X92.2Y-174.45
X92.2Y-179.45
X92.25Y-191.2
X92.25Y-196.2
X101.425Y-174.45
X101.425Y-179.45
X101.475Y-191.2
X101.475Y-196.2
X109.05Y-56.5
X109.05Y-61.5
X113.925Y-174.45
X113.925Y-179.45
X113.975Y-191.2
X113.975Y-196.2
X121.55Y-56.5
X121.55Y-61.5
T5
G00X61.2Y-72.375
M15
G01X61.2Y-71.675
M16
G05
G00X61.211Y-183.943
M15
G01X61.211Y-183.243
M16
G05
G00X70.8Y-72.375
M15
G01X70.8Y-71.675
M16
G05
G00X70.811Y-183.943
M15
G01X70.811Y-183.243
M16
G05
G00X122.9Y-72.075
M15
G01X122.9Y-71.375
M16
G05
G00X122.911Y-183.943
M15
G01X122.911Y-183.243
M16
G05
G00X132.5Y-72.075
M15
G01X132.5Y-71.375
M16
G05
G00X132.511Y-183.943
M15
G01X132.511Y-183.243
M16
G05
M30
